  0
SECTION
  2
HEADER
  9
$ACADVER
  1
AC1014
  9
$HANDSEED
  5
FFFF
  9
$MEASUREMENT
 70
     1
  0
ENDSEC
  0
SECTION
  2
TABLES
  0
TABLE
  2
VPORT
  5
8
330
0
100
AcDbSymbolTable
 70
     4
  0
VPORT
  5
2E
330
8
100
AcDbSymbolTableRecord
100
AcDbViewportTableRecord
  2
*ACTIVE
 70
     0
 10
0.0
 20
0.0
 11
1.0
 21
1.0
 12
210.0
 22
148.5
 13
0.0
 23
0.0
 14
10.0
 24
10.0
 15
10.0
 25
10.0
 16
0.0
 26
0.0
 36
1.0
 17
0.0
 27
0.0
 37
0.0
 40
341.0
 41
1.24
 42
50.0
 43
0.0
 44
0.0
 50
0.0
 51
0.0
 71
     0
 72
   100
 73
     1
 74
     3
 75
     0
 76
     0
 77
     0
 78
     0
  0
ENDTAB
  0
TABLE
  2
LTYPE
  5
5
330
0
100
AcDbSymbolTable
 70
     1
  0
LTYPE
  5
14
330
5
100
AcDbSymbolTableRecord
100
AcDbLinetypeTableRecord
  2
BYBLOCK
 70
     0
  3

 72
    65
 73
     0
 40
0.0
  0
LTYPE
  5
15
330
5
100
AcDbSymbolTableRecord
100
AcDbLinetypeTableRecord
  2
BYLAYER
 70
     0
  3

 72
    65
 73
     0
 40
0.0
  0
LTYPE
  5
16
330
5
100
AcDbSymbolTableRecord
100
AcDbLinetypeTableRecord
  2
CONTINUOUS
 70
     0
  3
Solid line
 72
    65
 73
     0
 40
0.0
  0
ENDTAB
  0
TABLE
  2
LAYER
  5
2
100
AcDbSymbolTable
 70
3
  0
LAYER
  5
50
100
AcDbSymbolTableRecord
100
AcDbLayerTableRecord
  2
0
 70
0
  6
CONTINUOUS
  0
LAYER
  5
51
100
AcDbSymbolTableRecord
100
AcDbLayerTableRecord
  2
Background
 70
0
  6
CONTINUOUS
  0
LAYER
  5
52
100
AcDbSymbolTableRecord
100
AcDbLayerTableRecord
  2
Path
 70
0
  6
CONTINUOUS
  0
ENDTAB
  0
TABLE
  2
STYLE
  5
3
330
0
100
AcDbSymbolTable
 70
     1
  0
STYLE
  5
11
330
3
100
AcDbSymbolTableRecord
100
AcDbTextStyleTableRecord
  2
STANDARD
 70
     0
 40
0.0
 41
1.0
 50
0.0
 71
     0
 42
2.5
  3
txt
  4

  0
ENDTAB
  0
TABLE
  2
VIEW
  5
6
330
0
100
AcDbSymbolTable
 70
     0
  0
ENDTAB
  0
TABLE
  2
UCS
  5
7
330
0
100
AcDbSymbolTable
 70
     0
  0
ENDTAB
  0
TABLE
  2
APPID
  5
9
330
0
100
AcDbSymbolTable
 70
     2
  0
APPID
  5
12
330
9
100
AcDbSymbolTableRecord
100
AcDbRegAppTableRecord
  2
ACAD
 70
     0
  0
ENDTAB
  0
TABLE
  2
DIMSTYLE
  5
A
330
0
100
AcDbSymbolTable
 70
     1
  0
DIMSTYLE
105
27
330
A
100
AcDbSymbolTableRecord
100
AcDbDimStyleTableRecord
  2
ISO-25
 70
     0
  3

  4

  5

  6

  7

 40
1.0
 41
2.5
 42
0.625
 43
3.75
 44
1.25
 45
0.0
 46
0.0
 47
0.0
 48
0.0
140
2.5
141
2.5
142
0.0
143
0.03937007874016
144
1.0
145
0.0
146
1.0
147
0.625
 71
     0
 72
     0
 73
     0
 74
     0
 75
     0
 76
     0
 77
     1
 78
     8
170
     0
171
     3
172
     1
173
     0
174
     0
175
     0
176
     0
177
     0
178
     0
270
     2
271
     2
272
     2
273
     2
274
     3
340
11
275
     0
280
     0
281
     0
282
     0
283
     0
284
     8
285
     0
286
     0
287
     3
288
     0
  0
ENDTAB
  0
TABLE
  2
BLOCK_RECORD
  5
1
330
0
100
AcDbSymbolTable
 70
     1
  0
BLOCK_RECORD
  5
1F
330
1
100
AcDbSymbolTableRecord
100
AcDbBlockTableRecord
  2
*MODEL_SPACE
  0
BLOCK_RECORD
  5
1B
330
1
100
AcDbSymbolTableRecord
100
AcDbBlockTableRecord
  2
*PAPER_SPACE
  0
ENDTAB
  0
ENDSEC
  0
SECTION
  2
BLOCKS
  0
BLOCK
  5
20
330
1F
100
AcDbEntity
  8
0
100
AcDbBlockBegin
  2
*MODEL_SPACE
 70
     0
 10
0.0
 20
0.0
 30
0.0
  3
*MODEL_SPACE
  1

  0
ENDBLK
  5
21
330
1F
100
AcDbEntity
  8
0
100
AcDbBlockEnd
  0
BLOCK
  5
1C
330
1B
100
AcDbEntity
 67
     1
  8
0
100
AcDbBlockBegin
  2
*PAPER_SPACE
  1

  0
ENDBLK
  5
1D
330
1B
100
AcDbEntity
 67
     1
  8
0
100
AcDbBlockEnd
  0
ENDSEC
  0
SECTION
  2
ENTITIES
  0
SPLINE
  5
100
100
AcDbEntity
  8
Path
 62
7
100
AcDbSpline
 70
8
 71
3
 72
8
 73
4
 74
0
 40
0
 40
0
 40
0
 40
0
 40
1
 40
1
 40
1
 40
1
 10
37.927148
 20
30.113155
 30
0.0
 10
37.927148
 20
30.113155
 30
0.0
 10
36.101991
 20
27.388722
 30
0.0
 10
38.512671
 20
24.826913
 30
0.0
  0
SPLINE
  5
101
100
AcDbEntity
  8
Path
 62
7
100
AcDbSpline
 70
8
 71
3
 72
8
 73
4
 74
0
 40
0
 40
0
 40
0
 40
0
 40
1
 40
1
 40
1
 40
1
 10
38.512671
 20
24.826913
 30
0.0
 10
39.656703
 20
23.611160
 30
0.0
 10
43.437540
 20
23.404126
 30
0.0
 10
43.437540
 20
23.404126
 30
0.0
  0
SPLINE
  5
102
100
AcDbEntity
  8
Path
 62
7
100
AcDbSpline
 70
8
 71
3
 72
8
 73
4
 74
0
 40
0
 40
0
 40
0
 40
0
 40
1
 40
1
 40
1
 40
1
 10
43.437540
 20
23.404126
 30
0.0
 10
43.437540
 20
23.404126
 30
0.0
 10
51.091872
 20
29.403590
 30
0.0
 10
53.642593
 20
33.875541
 30
0.0
  0
SPLINE
  5
103
100
AcDbEntity
  8
Path
 62
7
100
AcDbSpline
 70
8
 71
3
 72
8
 73
4
 74
0
 40
0
 40
0
 40
0
 40
0
 40
1
 40
1
 40
1
 40
1
 10
53.642593
 20
33.875541
 30
0.0
 10
53.995931
 20
34.495015
 30
0.0
 10
54.503992
 20
35.752693
 30
0.0
 10
54.503992
 20
35.752693
 30
0.0
  0
SPLINE
  5
104
100
AcDbEntity
  8
Path
 62
7
100
AcDbSpline
 70
8
 71
3
 72
8
 73
4
 74
0
 40
0
 40
0
 40
0
 40
0
 40
1
 40
1
 40
1
 40
1
 10
54.503992
 20
35.752693
 30
0.0
 10
54.503992
 20
35.752693
 30
0.0
 10
55.939571
 20
37.257575
 30
0.0
 10
56.073162
 20
38.170652
 30
0.0
  0
SPLINE
  5
105
100
AcDbEntity
  8
Path
 62
7
100
AcDbSpline
 70
8
 71
3
 72
8
 73
4
 74
0
 40
0
 40
0
 40
0
 40
0
 40
1
 40
1
 40
1
 40
1
 10
56.073162
 20
38.170652
 30
0.0
 10
56.245556
 20
39.348958
 30
0.0
 10
56.439411
 20
41.391986
 30
0.0
 10
56.439411
 20
41.391986
 30
0.0
  0
SPLINE
  5
106
100
AcDbEntity
  8
Path
 62
7
100
AcDbSpline
 70
8
 71
3
 72
8
 73
4
 74
0
 40
0
 40
0
 40
0
 40
0
 40
1
 40
1
 40
1
 40
1
 10
56.439411
 20
41.391986
 30
0.0
 10
56.439411
 20
41.391986
 30
0.0
 10
57.235095
 20
43.245254
 30
0.0
 10
57.354200
 20
43.797582
 30
0.0
  0
SPLINE
  5
107
100
AcDbEntity
  8
Path
 62
7
100
AcDbSpline
 70
8
 71
3
 72
8
 73
4
 74
0
 40
0
 40
0
 40
0
 40
0
 40
1
 40
1
 40
1
 40
1
 10
57.354200
 20
43.797582
 30
0.0
 10
57.761815
 20
45.687837
 30
0.0
 10
57.275375
 20
47.544236
 30
0.0
 10
58.237366
 20
49.557694
 30
0.0
  0
SPLINE
  5
108
100
AcDbEntity
  8
Path
 62
7
100
AcDbSpline
 70
8
 71
3
 72
8
 73
4
 74
0
 40
0
 40
0
 40
0
 40
0
 40
1
 40
1
 40
1
 40
1
 10
58.237366
 20
49.557694
 30
0.0
 10
58.518967
 20
50.147085
 30
0.0
 10
58.769200
 20
50.866633
 30
0.0
 10
58.570320
 20
51.488829
 30
0.0
  0
SPLINE
  5
109
100
AcDbEntity
  8
Path
 62
7
100
AcDbSpline
 70
8
 71
3
 72
8
 73
4
 74
0
 40
0
 40
0
 40
0
 40
0
 40
1
 40
1
 40
1
 40
1
 10
58.570320
 20
51.488829
 30
0.0
 10
58.348748
 20
52.182017
 30
0.0
 10
53.912783
 20
53.116446
 30
0.0
 10
53.825719
 20
57.365471
 30
0.0
  0
SPLINE
  5
10a
100
AcDbEntity
  8
Path
 62
7
100
AcDbSpline
 70
8
 71
3
 72
8
 73
4
 74
0
 40
0
 40
0
 40
0
 40
0
 40
1
 40
1
 40
1
 40
1
 10
53.825719
 20
57.365471
 30
0.0
 10
53.775105
 20
59.835608
 30
0.0
 10
56.139853
 20
63.531347
 30
0.0
 10
57.454922
 20
64.041209
 30
0.0
  0
SPLINE
  5
10b
100
AcDbEntity
  8
Path
 62
7
100
AcDbSpline
 70
8
 71
3
 72
8
 73
4
 74
0
 40
0
 40
0
 40
0
 40
0
 40
1
 40
1
 40
1
 40
1
 10
57.454922
 20
64.041209
 30
0.0
 10
59.003091
 20
64.641447
 30
0.0
 10
65.575595
 20
66.841741
 30
0.0
 10
67.426906
 20
68.869048
 30
0.0
  0
SPLINE
  5
10c
100
AcDbEntity
  8
Path
 62
7
100
AcDbSpline
 70
8
 71
3
 72
8
 73
4
 74
0
 40
0
 40
0
 40
0
 40
0
 40
1
 40
1
 40
1
 40
1
 10
67.426906
 20
68.869048
 30
0.0
 10
68.685741
 20
70.247555
 30
0.0
 10
64.438157
 20
65.147152
 30
0.0
 10
67.079352
 20
65.233152
 30
0.0
  0
SPLINE
  5
10d
100
AcDbEntity
  8
Path
 62
7
100
AcDbSpline
 70
8
 71
3
 72
8
 73
4
 74
0
 40
0
 40
0
 40
0
 40
0
 40
1
 40
1
 40
1
 40
1
 10
67.079352
 20
65.233152
 30
0.0
 10
70.099605
 20
65.331495
 30
0.0
 10
76.436897
 20
71.515915
 30
0.0
 10
77.731848
 20
72.631433
 30
0.0
  0
SPLINE
  5
10e
100
AcDbEntity
  8
Path
 62
7
100
AcDbSpline
 70
8
 71
3
 72
8
 73
4
 74
0
 40
0
 40
0
 40
0
 40
0
 40
1
 40
1
 40
1
 40
1
 10
77.731848
 20
72.631433
 30
0.0
 10
79.103191
 20
73.812760
 30
0.0
 10
69.982241
 20
62.652261
 30
0.0
 10
70.078568
 20
59.866300
 30
0.0
  0
SPLINE
  5
10f
100
AcDbEntity
  8
Path
 62
7
100
AcDbSpline
 70
8
 71
3
 72
8
 73
4
 74
0
 40
0
 40
0
 40
0
 40
0
 40
1
 40
1
 40
1
 40
1
 10
70.078568
 20
59.866300
 30
0.0
 10
70.093941
 20
59.421429
 30
0.0
 10
71.223312
 20
60.097845
 30
0.0
 10
72.784697
 20
60.554648
 30
0.0
  0
SPLINE
  5
110
100
AcDbEntity
  8
Path
 62
7
100
AcDbSpline
 70
8
 71
3
 72
8
 73
4
 74
0
 40
0
 40
0
 40
0
 40
0
 40
1
 40
1
 40
1
 40
1
 10
72.784697
 20
60.554648
 30
0.0
 10
74.427808
 20
61.035361
 30
0.0
 10
76.126329
 20
61.860652
 30
0.0
 10
76.100369
 20
61.743823
 30
0.0
  0
SPLINE
  5
111
100
AcDbEntity
  8
Path
 62
7
100
AcDbSpline
 70
8
 71
3
 72
8
 73
4
 74
0
 40
0
 40
0
 40
0
 40
0
 40
1
 40
1
 40
1
 40
1
 10
76.100369
 20
61.743823
 30
0.0
 10
75.666026
 20
59.789253
 30
0.0
 10
75.293178
 20
58.813975
 30
0.0
 10
74.002717
 20
57.057877
 30
0.0
  0
SPLINE
  5
112
100
AcDbEntity
  8
Path
 62
7
100
AcDbSpline
 70
8
 71
3
 72
8
 73
4
 74
0
 40
0
 40
0
 40
0
 40
0
 40
1
 40
1
 40
1
 40
1
 10
74.002717
 20
57.057877
 30
0.0
 10
73.840843
 20
56.837593
 30
0.0
 10
71.346753
 20
54.874724
 30
0.0
 10
71.364210
 20
54.172834
 30
0.0
  0
SPLINE
  5
113
100
AcDbEntity
  8
Path
 62
7
100
AcDbSpline
 70
8
 71
3
 72
8
 73
4
 74
0
 40
0
 40
0
 40
0
 40
0
 40
1
 40
1
 40
1
 40
1
 10
71.364210
 20
54.172834
 30
0.0
 10
71.380826
 20
53.504708
 30
0.0
 10
70.607846
 20
52.689863
 30
0.0
 10
70.495800
 20
52.520988
 30
0.0
  0
SPLINE
  5
114
100
AcDbEntity
  8
Path
 62
7
100
AcDbSpline
 70
8
 71
3
 72
8
 73
4
 74
0
 40
0
 40
0
 40
0
 40
0
 40
1
 40
1
 40
1
 40
1
 10
70.495800
 20
52.520988
 30
0.0
 10
68.429357
 20
49.406408
 30
0.0
 10
62.166227
 20
50.656442
 30
0.0
 10
62.166227
 20
50.656442
 30
0.0
  0
SPLINE
  5
115
100
AcDbEntity
  8
Path
 62
7
100
AcDbSpline
 70
8
 71
3
 72
8
 73
4
 74
0
 40
0
 40
0
 40
0
 40
0
 40
1
 40
1
 40
1
 40
1
 10
62.166227
 20
50.656442
 30
0.0
 10
62.166227
 20
50.656442
 30
0.0
 10
62.446744
 20
48.536617
 30
0.0
 10
61.925428
 20
47.589567
 30
0.0
  0
SPLINE
  5
116
100
AcDbEntity
  8
Path
 62
7
100
AcDbSpline
 70
8
 71
3
 72
8
 73
4
 74
0
 40
0
 40
0
 40
0
 40
0
 40
1
 40
1
 40
1
 40
1
 10
61.925428
 20
47.589567
 30
0.0
 10
61.512537
 20
46.839497
 30
0.0
 10
62.599067
 20
44.663262
 30
0.0
 10
62.599067
 20
44.663262
 30
0.0
  0
LWPOLYLINE
  5
117
100
AcDbEntity
  8
Path
 62
7
100
AcDbPolyline
 90
18
 70
0
 10
43.104586
 20
69.235298
 30
0.0
 10
41.697262
 20
68.046414
 30
0.0
 10
42.405382
 20
67.071094
 30
0.0
 10
41.756121
 20
66.671549
 30
0.0
 10
42.355439
 20
66.005640
 30
0.0
 10
41.889304
 20
58.114621
 30
0.0
 10
42.471972
 20
56.832749
 30
0.0
 10
41.523052
 20
54.552009
 30
0.0
 10
42.022485
 20
51.838431
 30
0.0
 10
41.523052
 20
50.123714
 30
0.0
 10
41.672883
 20
48.925080
 30
0.0
 10
41.123510
 20
48.225874
 30
0.0
 10
40.990327
 20
45.961784
 30
0.0
 10
40.357713
 20
42.931900
 30
0.0
 10
39.758395
 20
38.969741
 30
0.0
 10
39.508681
 20
38.603491
 30
0.0
 10
38.859418
 20
34.408266
 30
0.0
 10
37.927148
 20
30.113155
 30
0.0
  0
SPLINE
  5
118
100
AcDbEntity
  8
Path
 62
7
100
AcDbSpline
 70
8
 71
3
 72
8
 73
4
 74
0
 40
0
 40
0
 40
0
 40
0
 40
1
 40
1
 40
1
 40
1
 10
60.806571
 20
35.968937
 30
0.0
 10
60.806571
 20
35.968937
 30
0.0
 10
59.658451
 20
34.831557
 30
0.0
 10
60.053183
 20
31.895923
 30
0.0
  0
SPLINE
  5
119
100
AcDbEntity
  8
Path
 62
7
100
AcDbSpline
 70
8
 71
3
 72
8
 73
4
 74
0
 40
0
 40
0
 40
0
 40
0
 40
1
 40
1
 40
1
 40
1
 10
60.053183
 20
31.895923
 30
0.0
 10
60.103382
 20
31.522596
 30
0.0
 10
59.393966
 20
29.941819
 30
0.0
 10
59.393966
 20
29.941819
 30
0.0
  0
LWPOLYLINE
  5
11a
100
AcDbEntity
  8
Path
 62
7
100
AcDbPolyline
 90
5
 70
0
 10
62.599067
 20
44.663262
 30
0.0
 10
61.799978
 20
44.363603
 30
0.0
 10
61.842483
 20
43.149684
 30
0.0
 10
61.348070
 20
41.313296
 30
0.0
 10
60.806571
 20
35.968937
 30
0.0
  0
SPLINE
  5
11b
100
AcDbEntity
  8
Path
 62
7
100
AcDbSpline
 70
8
 71
3
 72
8
 73
4
 74
0
 40
0
 40
0
 40
0
 40
0
 40
1
 40
1
 40
1
 40
1
 10
46.091927
 20
15.909933
 30
0.0
 10
46.091927
 20
15.909933
 30
0.0
 10
41.423910
 20
12.664768
 30
0.0
 10
31.589173
 20
15.898159
 30
0.0
  0
SPLINE
  5
11c
100
AcDbEntity
  8
Path
 62
7
100
AcDbSpline
 70
8
 71
3
 72
8
 73
4
 74
0
 40
0
 40
0
 40
0
 40
0
 40
1
 40
1
 40
1
 40
1
 10
31.589173
 20
15.898159
 30
0.0
 10
31.472479
 20
15.936524
 30
0.0
 10
31.259563
 20
15.674496
 30
0.0
 10
31.259563
 20
15.674496
 30
0.0
  0
SPLINE
  5
11d
100
AcDbEntity
  8
Path
 62
7
100
AcDbSpline
 70
8
 71
3
 72
8
 73
4
 74
0
 40
0
 40
0
 40
0
 40
0
 40
1
 40
1
 40
1
 40
1
 10
31.259563
 20
15.674496
 30
0.0
 10
31.259563
 20
15.674496
 30
0.0
 10
31.549824
 20
13.167609
 30
0.0
 10
30.788695
 20
12.190069
 30
0.0
  0
SPLINE
  5
11e
100
AcDbEntity
  8
Path
 62
7
100
AcDbSpline
 70
8
 71
3
 72
8
 73
4
 74
0
 40
0
 40
0
 40
0
 40
0
 40
1
 40
1
 40
1
 40
1
 10
30.788695
 20
12.190069
 30
0.0
 10
30.478140
 20
11.791214
 30
0.0
 10
31.495000
 20
10.848091
 30
0.0
 10
31.495000
 20
10.848091
 30
0.0
  0
LWPOLYLINE
  5
11f
100
AcDbEntity
  8
Path
 62
7
100
AcDbPolyline
 90
6
 70
0
 10
59.393966
 20
29.941819
 30
0.0
 10
58.122622
 20
27.093063
 30
0.0
 10
56.144972
 20
23.208395
 30
0.0
 10
52.283849
 20
19.723968
 30
0.0
 10
48.469815
 20
17.228365
 30
0.0
 10
46.091927
 20
15.909933
 30
0.0
  0
SPLINE
  5
120
100
AcDbEntity
  8
Path
 62
7
100
AcDbSpline
 70
8
 71
3
 72
8
 73
4
 74
0
 40
0
 40
0
 40
0
 40
0
 40
1
 40
1
 40
1
 40
1
 10
31.942323
 20
5.786255
 30
0.0
 10
31.942323
 20
5.786255
 30
0.0
 10
33.050623
 20
3.267030
 30
0.0
 10
32.130672
 20
2.596118
 30
0.0
  0
SPLINE
  5
121
100
AcDbEntity
  8
Path
 62
7
100
AcDbSpline
 70
8
 71
3
 72
8
 73
4
 74
0
 40
0
 40
0
 40
0
 40
0
 40
1
 40
1
 40
1
 40
1
 10
32.130672
 20
2.596118
 30
0.0
 10
30.135994
 20
1.141415
 30
0.0
 10
26.080008
 20
2.466631
 30
0.0
 10
26.080008
 20
2.466631
 30
0.0
  0
SPLINE
  5
122
100
AcDbEntity
  8
Path
 62
7
100
AcDbSpline
 70
8
 71
3
 72
8
 73
4
 74
0
 40
0
 40
0
 40
0
 40
0
 40
1
 40
1
 40
1
 40
1
 10
26.080008
 20
2.466631
 30
0.0
 10
26.080008
 20
2.466631
 30
0.0
 10
24.006249
 20
2.361898
 30
0.0
 10
24.914609
 20
5.138809
 30
0.0
  0
SPLINE
  5
123
100
AcDbEntity
  8
Path
 62
7
100
AcDbSpline
 70
8
 71
3
 72
8
 73
4
 74
0
 40
0
 40
0
 40
0
 40
0
 40
1
 40
1
 40
1
 40
1
 10
24.914609
 20
5.138809
 30
0.0
 10
24.956050
 20
5.265497
 30
0.0
 10
26.508850
 20
5.532993
 30
0.0
 10
26.862254
 20
5.790761
 30
0.0
  0
SPLINE
  5
124
100
AcDbEntity
  8
Path
 62
7
100
AcDbSpline
 70
8
 71
3
 72
8
 73
4
 74
0
 40
0
 40
0
 40
0
 40
0
 40
1
 40
1
 40
1
 40
1
 10
26.862254
 20
5.790761
 30
0.0
 10
27.437691
 20
6.210483
 30
0.0
 10
27.637915
 20
7.544747
 30
0.0
 10
27.186549
 20
13.579131
 30
0.0
  0
SPLINE
  5
125
100
AcDbEntity
  8
Path
 62
7
100
AcDbSpline
 70
8
 71
3
 72
8
 73
4
 74
0
 40
0
 40
0
 40
0
 40
0
 40
1
 40
1
 40
1
 40
1
 10
27.186549
 20
13.579131
 30
0.0
 10
27.120723
 20
14.459159
 30
0.0
 10
26.127353
 20
14.385642
 30
0.0
 10
26.821627
 20
16.416113
 30
0.0
  0
SPLINE
  5
126
100
AcDbEntity
  8
Path
 62
7
100
AcDbSpline
 70
8
 71
3
 72
8
 73
4
 74
0
 40
0
 40
0
 40
0
 40
0
 40
1
 40
1
 40
1
 40
1
 10
26.821627
 20
16.416113
 30
0.0
 10
26.821627
 20
16.416113
 30
0.0
 10
25.850417
 20
16.438787
 30
0.0
 10
24.189143
 20
16.444897
 30
0.0
  0
SPLINE
  5
127
100
AcDbEntity
  8
Path
 62
7
100
AcDbSpline
 70
8
 71
3
 72
8
 73
4
 74
0
 40
0
 40
0
 40
0
 40
0
 40
1
 40
1
 40
1
 40
1
 10
24.189143
 20
16.444897
 30
0.0
 10
22.590615
 20
16.450770
 30
0.0
 10
20.641477
 20
16.639775
 30
0.0
 10
20.641477
 20
16.639775
 30
0.0
  0
LWPOLYLINE
  5
128
100
AcDbEntity
  8
Path
 62
7
100
AcDbPolyline
 90
2
 70
0
 10
31.495000
 20
10.848091
 30
0.0
 10
31.942323
 20
5.786255
 30
0.0
  0
SPLINE
  5
129
100
AcDbEntity
  8
Path
 62
7
100
AcDbSpline
 70
8
 71
3
 72
8
 73
4
 74
0
 40
0
 40
0
 40
0
 40
0
 40
1
 40
1
 40
1
 40
1
 10
20.099978
 20
15.521464
 30
0.0
 10
20.099978
 20
15.521464
 30
0.0
 10
20.099771
 20
10.978692
 30
0.0
 10
20.123526
 20
8.988160
 30
0.0
  0
SPLINE
  5
12a
100
AcDbEntity
  8
Path
 62
7
100
AcDbSpline
 70
8
 71
3
 72
8
 73
4
 74
0
 40
0
 40
0
 40
0
 40
0
 40
1
 40
1
 40
1
 40
1
 10
20.123526
 20
8.988160
 30
0.0
 10
20.139639
 20
7.638341
 30
0.0
 10
20.264787
 20
5.503733
 30
0.0
 10
20.264787
 20
5.503733
 30
0.0
  0
LWPOLYLINE
  5
12b
100
AcDbEntity
  8
Path
 62
7
100
AcDbPolyline
 90
2
 70
0
 10
20.641477
 20
16.639775
 30
0.0
 10
20.099978
 20
15.521464
 30
0.0
  0
SPLINE
  5
12c
100
AcDbEntity
  8
Path
 62
7
100
AcDbSpline
 70
8
 71
3
 72
8
 73
4
 74
0
 40
0
 40
0
 40
0
 40
0
 40
1
 40
1
 40
1
 40
1
 10
19.111158
 20
1.030481
 30
0.0
 10
19.111158
 20
1.030481
 30
0.0
 10
15.977158
 20
-0.310830
 30
0.0
 10
14.849798
 20
0.159372
 30
0.0
  0
SPLINE
  5
12d
100
AcDbEntity
  8
Path
 62
7
100
AcDbSpline
 70
8
 71
3
 72
8
 73
4
 74
0
 40
0
 40
0
 40
0
 40
0
 40
1
 40
1
 40
1
 40
1
 10
14.849798
 20
0.159372
 30
0.0
 10
13.612080
 20
0.675603
 30
0.0
 10
13.649082
 20
2.937494
 30
0.0
 10
13.719712
 20
3.314192
 30
0.0
  0
SPLINE
  5
12e
100
AcDbEntity
  8
Path
 62
7
100
AcDbSpline
 70
8
 71
3
 72
8
 73
4
 74
0
 40
0
 40
0
 40
0
 40
0
 40
1
 40
1
 40
1
 40
1
 10
13.719712
 20
3.314192
 30
0.0
 10
13.737598
 20
3.409603
 30
0.0
 10
15.603186
 20
4.303017
 30
0.0
 10
15.603186
 20
4.303017
 30
0.0
  0
SPLINE
  5
12f
100
AcDbEntity
  8
Path
 62
7
100
AcDbSpline
 70
8
 71
3
 72
8
 73
4
 74
0
 40
0
 40
0
 40
0
 40
0
 40
1
 40
1
 40
1
 40
1
 10
15.603186
 20
4.303017
 30
0.0
 10
15.603186
 20
4.303017
 30
0.0
 10
15.188380
 20
6.215917
 30
0.0
 10
15.956338
 20
7.481382
 30
0.0
  0
SPLINE
  5
130
100
AcDbEntity
  8
Path
 62
7
100
AcDbSpline
 70
8
 71
3
 72
8
 73
4
 74
0
 40
0
 40
0
 40
0
 40
0
 40
1
 40
1
 40
1
 40
1
 10
15.956338
 20
7.481382
 30
0.0
 10
16.652983
 20
8.629338
 30
0.0
 10
16.207684
 20
10.438149
 30
0.0
 10
15.956338
 20
11.884004
 30
0.0
  0
SPLINE
  5
131
100
AcDbEntity
  8
Path
 62
7
100
AcDbSpline
 70
8
 71
3
 72
8
 73
4
 74
0
 40
0
 40
0
 40
0
 40
0
 40
1
 40
1
 40
1
 40
1
 10
15.956338
 20
11.884004
 30
0.0
 10
15.783589
 20
12.877739
 30
0.0
 10
15.250036
 20
13.202436
 30
0.0
 10
15.626731
 20
14.638584
 30
0.0
  0
SPLINE
  5
132
100
AcDbEntity
  8
Path
 62
7
100
AcDbSpline
 70
8
 71
3
 72
8
 73
4
 74
0
 40
0
 40
0
 40
0
 40
0
 40
1
 40
1
 40
1
 40
1
 10
15.626731
 20
14.638584
 30
0.0
 10
15.650623
 20
14.729677
 30
0.0
 10
15.461927
 20
16.592690
 30
0.0
 10
15.461927
 20
16.592690
 30
0.0
  0
SPLINE
  5
133
100
AcDbEntity
  8
Path
 62
7
100
AcDbSpline
 70
8
 71
3
 72
8
 73
4
 74
0
 40
0
 40
0
 40
0
 40
0
 40
1
 40
1
 40
1
 40
1
 10
15.461927
 20
16.592690
 30
0.0
 10
15.461927
 20
16.592690
 30
0.0
 10
14.754177
 20
16.620903
 30
0.0
 10
11.530174
 20
16.722180
 30
0.0
  0
SPLINE
  5
134
100
AcDbEntity
  8
Path
 62
7
100
AcDbSpline
 70
8
 71
3
 72
8
 73
4
 74
0
 40
0
 40
0
 40
0
 40
0
 40
1
 40
1
 40
1
 40
1
 10
11.530174
 20
16.722180
 30
0.0
 10
9.852768
 20
16.774872
 30
0.0
 10
8.884926
 20
19.112090
 30
0.0
 10
9.043517
 20
21.423900
 30
0.0
  0
SPLINE
  5
135
100
AcDbEntity
  8
Path
 62
7
100
AcDbSpline
 70
8
 71
3
 72
8
 73
4
 74
0
 40
0
 40
0
 40
0
 40
0
 40
1
 40
1
 40
1
 40
1
 10
9.043517
 20
21.423900
 30
0.0
 10
9.601047
 20
29.551125
 30
0.0
 10
8.957654
 20
27.143694
 30
0.0
 10
10.020334
 20
28.621995
 30
0.0
  0
SPLINE
  5
136
100
AcDbEntity
  8
Path
 62
7
100
AcDbSpline
 70
8
 71
3
 72
8
 73
4
 74
0
 40
0
 40
0
 40
0
 40
0
 40
1
 40
1
 40
1
 40
1
 10
10.020334
 20
28.621995
 30
0.0
 10
11.541490
 20
30.738064
 30
0.0
 10
14.192361
 20
41.578189
 30
0.0
 10
15.626731
 20
47.246238
 30
0.0
  0
SPLINE
  5
137
100
AcDbEntity
  8
Path
 62
7
100
AcDbSpline
 70
8
 71
3
 72
8
 73
4
 74
0
 40
0
 40
0
 40
0
 40
0
 40
1
 40
1
 40
1
 40
1
 10
15.626731
 20
47.246238
 30
0.0
 10
16.299318
 20
49.904031
 30
0.0
 10
13.305195
 20
47.730950
 30
0.0
 10
13.013410
 20
47.458130
 30
0.0
  0
SPLINE
  5
138
100
AcDbEntity
  8
Path
 62
7
100
AcDbSpline
 70
8
 71
3
 72
8
 73
4
 74
0
 40
0
 40
0
 40
0
 40
0
 40
1
 40
1
 40
1
 40
1
 10
13.013410
 20
47.458130
 30
0.0
 10
11.782486
 20
46.307219
 30
0.0
 10
11.177021
 20
41.572270
 30
0.0
 10
11.177021
 20
41.572270
 30
0.0
  0
LWPOLYLINE
  5
139
100
AcDbEntity
  8
Path
 62
7
100
AcDbPolyline
 90
3
 70
0
 10
20.264787
 20
5.503733
 30
0.0
 10
20.665025
 20
2.796238
 30
0.0
 10
19.111158
 20
1.030481
 30
0.0
  0
SPLINE
  5
13a
100
AcDbEntity
  8
Path
 62
7
100
AcDbSpline
 70
8
 71
3
 72
8
 73
4
 74
0
 40
0
 40
0
 40
0
 40
0
 40
1
 40
1
 40
1
 40
1
 10
8.610788
 20
42.349203
 30
0.0
 10
8.610788
 20
42.349203
 30
0.0
 10
8.797912
 20
44.545086
 30
0.0
 10
8.563700
 20
44.656460
 30
0.0
  0
SPLINE
  5
13b
100
AcDbEntity
  8
Path
 62
7
100
AcDbSpline
 70
8
 71
3
 72
8
 73
4
 74
0
 40
0
 40
0
 40
0
 40
0
 40
1
 40
1
 40
1
 40
1
 10
8.563700
 20
44.656460
 30
0.0
 10
7.791535
 20
45.023646
 30
0.0
 10
6.545649
 20
45.995243
 30
0.0
 10
7.092236
 20
46.233871
 30
0.0
  0
SPLINE
  5
13c
100
AcDbEntity
  8
Path
 62
7
100
AcDbSpline
 70
8
 71
3
 72
8
 73
4
 74
0
 40
0
 40
0
 40
0
 40
0
 40
1
 40
1
 40
1
 40
1
 10
7.092236
 20
46.233871
 30
0.0
 10
7.668580
 20
46.485490
 30
0.0
 10
9.028682
 20
47.405158
 30
0.0
 10
9.028682
 20
47.405158
 30
0.0
  0
SPLINE
  5
13d
100
AcDbEntity
  8
Path
 62
7
100
AcDbSpline
 70
8
 71
3
 72
8
 73
4
 74
0
 40
0
 40
0
 40
0
 40
0
 40
1
 40
1
 40
1
 40
1
 10
9.028682
 20
47.405158
 30
0.0
 10
8.231715
 20
49.749022
 30
0.0
 10
13.254104
 20
52.128634
 30
0.0
 10
15.650273
 20
51.907837
 30
0.0
  0
SPLINE
  5
13e
100
AcDbEntity
  8
Path
 62
7
100
AcDbSpline
 70
8
 71
3
 72
8
 73
4
 74
0
 40
0
 40
0
 40
0
 40
0
 40
1
 40
1
 40
1
 40
1
 10
15.650273
 20
51.907837
 30
0.0
 10
15.650273
 20
51.907837
 30
0.0
 10
15.718933
 20
52.315462
 30
0.0
 10
16.921620
 20
52.849576
 30
0.0
  0
SPLINE
  5
13f
100
AcDbEntity
  8
Path
 62
7
100
AcDbSpline
 70
8
 71
3
 72
8
 73
4
 74
0
 40
0
 40
0
 40
0
 40
0
 40
1
 40
1
 40
1
 40
1
 10
16.921620
 20
52.849576
 30
0.0
 10
17.033973
 20
52.899474
 30
0.0
 10
17.179967
 20
54.007848
 30
0.0
 10
16.867198
 20
54.205113
 30
0.0
  0
SPLINE
  5
140
100
AcDbEntity
  8
Path
 62
7
100
AcDbSpline
 70
8
 71
3
 72
8
 73
4
 74
0
 40
0
 40
0
 40
0
 40
0
 40
1
 40
1
 40
1
 40
1
 10
16.867198
 20
54.205113
 30
0.0
 10
16.667197
 20
54.331256
 30
0.0
 10
16.546557
 20
54.398434
 30
0.0
 10
16.328207
 20
54.444408
 30
0.0
  0
SPLINE
  5
141
100
AcDbEntity
  8
Path
 62
7
100
AcDbSpline
 70
8
 71
3
 72
8
 73
4
 74
0
 40
0
 40
0
 40
0
 40
0
 40
1
 40
1
 40
1
 40
1
 10
16.328207
 20
54.444408
 30
0.0
 10
16.109857
 20
54.490382
 30
0.0
 10
15.687850
 20
54.515152
 30
0.0
 10
15.097003
 20
54.556472
 30
0.0
  0
SPLINE
  5
142
100
AcDbEntity
  8
Path
 62
7
100
AcDbSpline
 70
8
 71
3
 72
8
 73
4
 74
0
 40
0
 40
0
 40
0
 40
0
 40
1
 40
1
 40
1
 40
1
 10
15.097003
 20
54.556472
 30
0.0
 10
13.531948
 20
54.665925
 30
0.0
 10
11.717465
 20
53.298394
 30
0.0
 10
10.971938
 20
52.356247
 30
0.0
  0
SPLINE
  5
143
100
AcDbEntity
  8
Path
 62
7
100
AcDbSpline
 70
8
 71
3
 72
8
 73
4
 74
0
 40
0
 40
0
 40
0
 40
0
 40
1
 40
1
 40
1
 40
1
 10
10.971938
 20
52.356247
 30
0.0
 10
10.226411
 20
51.414098
 30
0.0
 10
9.678736
 20
50.756071
 30
0.0
 10
9.470123
 20
50.730666
 30
0.0
  0
SPLINE
  5
144
100
AcDbEntity
  8
Path
 62
7
100
AcDbSpline
 70
8
 71
3
 72
8
 73
4
 74
0
 40
0
 40
0
 40
0
 40
0
 40
1
 40
1
 40
1
 40
1
 10
9.470123
 20
50.730666
 30
0.0
 10
6.979896
 20
50.427406
 30
0.0
 10
5.503056
 20
46.163241
 30
0.0
 10
5.503056
 20
46.163241
 30
0.0
  0
LWPOLYLINE
  5
145
100
AcDbEntity
  8
Path
 62
7
100
AcDbPolyline
 90
4
 70
0
 10
11.177021
 20
41.572270
 30
0.0
 10
9.787959
 20
43.597007
 30
0.0
 10
9.270003
 20
42.349203
 30
0.0
 10
8.610788
 20
42.349203
 30
0.0
  0
SPLINE
  5
146
100
AcDbEntity
  8
Path
 62
7
100
AcDbSpline
 70
8
 71
3
 72
8
 73
4
 74
0
 40
0
 40
0
 40
0
 40
0
 40
1
 40
1
 40
1
 40
1
 10
5.102815
 20
46.492848
 30
0.0
 10
5.102815
 20
46.492848
 30
0.0
 10
4.056227
 20
44.695726
 30
0.0
 10
3.690210
 20
43.526377
 30
0.0
  0
SPLINE
  5
147
100
AcDbEntity
  8
Path
 62
7
100
AcDbSpline
 70
8
 71
3
 72
8
 73
4
 74
0
 40
0
 40
0
 40
0
 40
0
 40
1
 40
1
 40
1
 40
1
 10
3.690210
 20
43.526377
 30
0.0
 10
3.582143
 20
43.181127
 30
0.0
 10
2.866189
 20
42.820074
 30
0.0
 10
2.866189
 20
42.820074
 30
0.0
  0
SPLINE
  5
148
100
AcDbEntity
  8
Path
 62
7
100
AcDbSpline
 70
8
 71
3
 72
8
 73
4
 74
0
 40
0
 40
0
 40
0
 40
0
 40
1
 40
1
 40
1
 40
1
 10
2.866189
 20
42.820074
 30
0.0
 10
2.866189
 20
42.820074
 30
0.0
 10
2.934303
 20
44.039248
 30
0.0
 10
2.562982
 20
44.539927
 30
0.0
  0
SPLINE
  5
149
100
AcDbEntity
  8
Path
 62
7
100
AcDbSpline
 70
8
 71
3
 72
8
 73
4
 74
0
 40
0
 40
0
 40
0
 40
0
 40
1
 40
1
 40
1
 40
1
 10
2.562982
 20
44.539927
 30
0.0
 10
2.316782
 20
44.871897
 30
0.0
 10
0.603896
 20
42.912850
 30
0.0
 10
0.561790
 20
45.222687
 30
0.0
  0
SPLINE
  5
14a
100
AcDbEntity
  8
Path
 62
7
100
AcDbSpline
 70
8
 71
3
 72
8
 73
4
 74
0
 40
0
 40
0
 40
0
 40
0
 40
1
 40
1
 40
1
 40
1
 10
0.561790
 20
45.222687
 30
0.0
 10
0.557953
 20
45.433663
 30
0.0
 10
1.222190
 20
46.005332
 30
0.0
 10
1.222190
 20
46.005332
 30
0.0
  0
LWPOLYLINE
  5
14b
100
AcDbEntity
  8
Path
 62
7
100
AcDbPolyline
 90
2
 70
0
 10
5.503056
 20
46.163241
 30
0.0
 10
5.102815
 20
46.492848
 30
0.0
  0
SPLINE
  5
14c
100
AcDbEntity
  8
Path
 62
7
100
AcDbSpline
 70
8
 71
3
 72
8
 73
4
 74
0
 40
0
 40
0
 40
0
 40
0
 40
1
 40
1
 40
1
 40
1
 10
0.021129
 20
47.833325
 30
0.0
 10
0.021129
 20
47.833325
 30
0.0
 10
1.171572
 20
47.785017
 30
0.0
 10
1.675313
 20
48.060996
 30
0.0
  0
SPLINE
  5
14d
100
AcDbEntity
  8
Path
 62
7
100
AcDbSpline
 70
8
 71
3
 72
8
 73
4
 74
0
 40
0
 40
0
 40
0
 40
0
 40
1
 40
1
 40
1
 40
1
 10
1.675313
 20
48.060996
 30
0.0
 10
2.879500
 20
48.720719
 30
0.0
 10
5.188760
 20
49.881465
 30
0.0
 10
4.255254
 20
51.272165
 30
0.0
  0
SPLINE
  5
14e
100
AcDbEntity
  8
Path
 62
7
100
AcDbSpline
 70
8
 71
3
 72
8
 73
4
 74
0
 40
0
 40
0
 40
0
 40
0
 40
1
 40
1
 40
1
 40
1
 10
4.255254
 20
51.272165
 30
0.0
 10
4.255254
 20
51.272165
 30
0.0
 10
6.085221
 20
52.538728
 30
0.0
 10
6.412082
 20
53.011155
 30
0.0
  0
SPLINE
  5
14f
100
AcDbEntity
  8
Path
 62
7
100
AcDbSpline
 70
8
 71
3
 72
8
 73
4
 74
0
 40
0
 40
0
 40
0
 40
0
 40
1
 40
1
 40
1
 40
1
 10
6.412082
 20
53.011155
 30
0.0
 10
8.364172
 20
55.832600
 30
0.0
 10
13.515234
 20
58.894533
 30
0.0
 10
18.004621
 20
57.793697
 30
0.0
  0
SPLINE
  5
150
100
AcDbEntity
  8
Path
 62
7
100
AcDbSpline
 70
8
 71
3
 72
8
 73
4
 74
0
 40
0
 40
0
 40
0
 40
0
 40
1
 40
1
 40
1
 40
1
 10
18.004621
 20
57.793697
 30
0.0
 10
18.321681
 20
57.715952
 30
0.0
 10
19.948518
 20
66.484817
 30
0.0
 10
16.633351
 20
67.874726
 30
0.0
  0
SPLINE
  5
151
100
AcDbEntity
  8
Path
 62
7
100
AcDbSpline
 70
8
 71
3
 72
8
 73
4
 74
0
 40
0
 40
0
 40
0
 40
0
 40
1
 40
1
 40
1
 40
1
 10
16.633351
 20
67.874726
 30
0.0
 10
14.361621
 20
68.827166
 30
0.0
 10
12.872447
 20
68.080869
 30
0.0
 10
10.941590
 20
66.010353
 30
0.0
  0
SPLINE
  5
152
100
AcDbEntity
  8
Path
 62
7
100
AcDbSpline
 70
8
 71
3
 72
8
 73
4
 74
0
 40
0
 40
0
 40
0
 40
0
 40
1
 40
1
 40
1
 40
1
 10
10.941590
 20
66.010353
 30
0.0
 10
10.357601
 20
65.384124
 30
0.0
 10
8.072551
 20
65.546748
 30
0.0
 10
8.493072
 20
66.787286
 30
0.0
  0
SPLINE
  5
153
100
AcDbEntity
  8
Path
 62
7
100
AcDbSpline
 70
8
 71
3
 72
8
 73
4
 74
0
 40
0
 40
0
 40
0
 40
0
 40
1
 40
1
 40
1
 40
1
 10
8.493072
 20
66.787286
 30
0.0
 10
8.573225
 20
67.023738
 30
0.0
 10
7.339444
 20
68.223436
 30
0.0
 10
7.339444
 20
68.223436
 30
0.0
  0
SPLINE
  5
154
100
AcDbEntity
  8
Path
 62
7
100
AcDbSpline
 70
8
 71
3
 72
8
 73
4
 74
0
 40
0
 40
0
 40
0
 40
0
 40
1
 40
1
 40
1
 40
1
 10
7.339444
 20
68.223436
 30
0.0
 10
7.339444
 20
68.223436
 30
0.0
 10
7.083761
 20
68.659941
 30
0.0
 10
7.009836
 20
68.529500
 30
0.0
  0
SPLINE
  5
155
100
AcDbEntity
  8
Path
 62
7
100
AcDbSpline
 70
8
 71
3
 72
8
 73
4
 74
0
 40
0
 40
0
 40
0
 40
0
 40
1
 40
1
 40
1
 40
1
 10
7.009836
 20
68.529500
 30
0.0
 10
2.085279
 20
59.840085
 30
0.0
 10
2.192253
 20
70.020016
 30
0.0
 10
2.913280
 20
71.413573
 30
0.0
  0
SPLINE
  5
156
100
AcDbEntity
  8
Path
 62
7
100
AcDbSpline
 70
8
 71
3
 72
8
 73
4
 74
0
 40
0
 40
0
 40
0
 40
0
 40
1
 40
1
 40
1
 40
1
 10
2.913280
 20
71.413573
 30
0.0
 10
7.494106
 20
80.267117
 30
0.0
 10
16.306757
 20
88.677344
 30
0.0
 10
25.797497
 20
88.070551
 30
0.0
  0
SPLINE
  5
157
100
AcDbEntity
  8
Path
 62
7
100
AcDbSpline
 70
8
 71
3
 72
8
 73
4
 74
0
 40
0
 40
0
 40
0
 40
0
 40
1
 40
1
 40
1
 40
1
 10
25.797497
 20
88.070551
 30
0.0
 10
26.075277
 20
88.052791
 30
0.0
 10
26.103561
 20
88.847484
 30
0.0
 10
26.103561
 20
88.847484
 30
0.0
  0
SPLINE
  5
158
100
AcDbEntity
  8
Path
 62
7
100
AcDbSpline
 70
8
 71
3
 72
8
 73
4
 74
0
 40
0
 40
0
 40
0
 40
0
 40
1
 40
1
 40
1
 40
1
 10
26.103561
 20
88.847484
 30
0.0
 10
26.103561
 20
88.847484
 30
0.0
 10
32.177932
 20
89.533623
 30
0.0
 10
36.976378
 20
81.089060
 30
0.0
  0
SPLINE
  5
159
100
AcDbEntity
  8
Path
 62
7
100
AcDbSpline
 70
8
 71
3
 72
8
 73
4
 74
0
 40
0
 40
0
 40
0
 40
0
 40
1
 40
1
 40
1
 40
1
 10
36.976378
 20
81.089060
 30
0.0
 10
37.990349
 20
79.304620
 30
0.0
 10
39.042163
 20
78.252884
 30
0.0
 10
40.170616
 20
75.638450
 30
0.0
  0
SPLINE
  5
15a
100
AcDbEntity
  8
Path
 62
7
100
AcDbSpline
 70
8
 71
3
 72
8
 73
4
 74
0
 40
0
 40
0
 40
0
 40
0
 40
1
 40
1
 40
1
 40
1
 10
40.170616
 20
75.638450
 30
0.0
 10
41.253566
 20
73.129443
 30
0.0
 10
43.104594
 20
69.235298
 30
0.0
 10
43.104594
 20
69.235298
 30
0.0
  0
LWPOLYLINE
  5
15b
100
AcDbEntity
  8
Path
 62
7
100
AcDbPolyline
 90
3
 70
0
 10
1.222190
 20
46.005332
 30
0.0
 10
-0.048868
 20
47.101141
 30
0.0
 10
0.021129
 20
47.833325
 30
0.0
  0
LWPOLYLINE
  5
15c
100
AcDbEntity
  8
Path
 62
7
100
AcDbPolyline
 90
1
 70
1
 10
43.104594
 20
69.235298
 30
0.0
  0
ENDSEC
  0
SECTION
  2
OBJECTS
  0
DICTIONARY
  5
C
330
0
100
AcDbDictionary
  3
ACAD_GROUP
350
D
  3
ACAD_MLINESTYLE
350
17
  0
DICTIONARY
  5
D
330
C
100
AcDbDictionary
  0
DICTIONARY
  5
1A
330
C
100
AcDbDictionary
  0
DICTIONARY
  5
17
330
C
100
AcDbDictionary
  3
STANDARD
350
18
  0
DICTIONARY
  5
19
330
C
100
AcDbDictionary
  0
ENDSEC
  0
EOF
